<svg viewBox="0 0 48 48" xmlns="http://www.w3.org/2000/svg"><g fill="#ffffff" stroke="#ffffff" stroke-linecap="round" stroke-linejoin="round"><path d="m16.5169 14.3442 7.7047-4.801 10.2741 8.6883v12.5665l-5.9671 4.836v-11.8175l-12.0117-9.4722z"/><path d="m26.0581 9.2578 5.8416-3.6121 10.4601 7.293-6.4328 4.9258"/><path d="m36.2041 28.6126 6.2959-5.1397"/><path d="m36.2041 25.9523 6.2959-5.1397"/><path d="m36.2041 23.292 6.2959-5.1397"/><path d="m36.2041 20.6317 6.2959-5.1397"/><path d="m35.3139 14.172 2.7236-2.077-1.865-1.2474-1.4987 1.1314"/><path d="m5.5 31.9538 13.5429 10.4006 7.4233-5.9106"/><path d="m5.5 29.2851 13.5429 10.4006 7.4233-5.9106"/><path d="m5.6039 26.6164 13.5429 10.4006 7.4233-5.9106"/><path d="m5.5892 23.9478 13.5429 10.4006 7.4233-5.9106"/><path d="m20.2345 23.7501c-.226 1.0274-1.6933 1.5535-3.2773 1.1753-1.5841-.3783-2.685-1.5178-2.459-2.5451.226-1.0274 1.6933-1.5535 3.2773-1.1753s2.685 1.5177 2.459 2.5451z"/><path d="m15.0514 15.826-9.2955 5.5946 13.3311 10.1174 7.6392-6.0147"/></g></svg>